<?xml version="1.0" standalone="no"?>
<!DOCTYPE svg PUBLIC "-//W3C//DTD SVG 20010904//EN"
 "http://www.w3.org/TR/2001/REC-SVG-20010904/DTD/svg10.dtd">
<svg version="1.0" xmlns="http://www.w3.org/2000/svg"
 width="50.000000pt" height="50.000000pt" viewBox="0 0 50.000000 50.000000"
 preserveAspectRatio="xMidYMid meet">

<g transform="translate(0.000000,50.000000) scale(0.100000,-0.100000)"
fill="#000000" stroke="none">
<path d="M232 438 c-6 -6 -12 -16 -12 -22 0 -5 -17 -24 -39 -42 -25 -22 -41
-45 -45 -68 -8 -42 -33 -67 -42 -42 -4 9 -4 37 -1 62 5 49 -12 80 -48 86 -16
2 -21 -3 -23 -29 -2 -18 1 -33 7 -33 7 0 7 -8 1 -26 -24 -62 4 -144 55 -164
39 -15 83 -50 88 -71 5 -17 15 -19 86 -19 69 0 83 3 88 18 4 9 23 33 44 54 74
73 111 165 79 203 -18 22 -60 19 -87 -7 -15 -14 -23 -17 -23 -8 0 13 -57 70
-71 70 -4 0 -9 10 -11 22 -3 26 -28 34 -46 16z m-164 -120 c2 -43 8 -71 17
-78 16 -14 21 -60 6 -60 -5 0 -19 12 -31 28 -19 23 -21 35 -15 77 9 66 9 67 0
89 -6 14 -4 18 6 14 10 -3 15 -25 17 -70z m222 57 c17 -9 30 -18 30 -20 0 -3
-30 -5 -66 -5 -66 0 -77 11 -30 30 30 12 33 12 66 -5z m168 -52 c11 -22 -2
-70 -26 -99 l-17 -22 -21 44 c-21 44 -21 45 -2 69 23 29 54 32 66 8z m-115
-17 c-1 -10 8 -28 18 -40 40 -42 36 -108 -6 -128 -14 -6 -25 -17 -25 -24 0 -7
-10 -11 -25 -9 -14 1 -25 -2 -25 -6 0 -5 -20 -9 -45 -9 -47 0 -57 13 -32 39
10 11 9 13 -5 8 -11 -4 -18 -1 -18 6 0 8 -4 6 -10 -3 -8 -13 -10 -13 -10 2 0
9 -8 22 -17 27 -10 6 -13 11 -8 11 6 0 3 5 -5 10 -13 9 -13 10 0 10 11 0 12 2
3 8 -9 6 -7 22 10 65 l22 57 90 -2 c81 -3 90 -5 88 -22z"/>
<path d="M274 308 c3 -15 26 -23 26 -8 0 6 -4 9 -9 6 -5 -4 -12 -1 -14 4 -3 6
-4 5 -3 -2z"/>
</g>
</svg>
