<?xml version="1.0" standalone="no"?>
<!DOCTYPE svg PUBLIC "-//W3C//DTD SVG 20010904//EN"
 "http://www.w3.org/TR/2001/REC-SVG-20010904/DTD/svg10.dtd">
<svg version="1.0" xmlns="http://www.w3.org/2000/svg"
 width="799.000000pt" height="533.000000pt" viewBox="0 0 799.000000 533.000000"
 preserveAspectRatio="xMidYMid meet">

<g transform="translate(0.000000,533.000000) scale(0.100000,-0.100000)"
fill="#000000" stroke="none">
<path d="M0 2665 l0 -2665 3995 0 3995 0 0 2665 0 2665 -3995 0 -3995 0 0
-2665z m3005 1415 c35 -117 33 -177 -11 -297 -19 -54 -39 -116 -43 -138 l-7
-40 -24 60 c-13 33 -25 89 -28 125 -3 58 0 77 33 160 22 57 39 120 42 158 3
34 7 61 9 59 2 -2 15 -41 29 -87z m964 -169 c12 -8 12 -15 -2 -49 -15 -37 -15
-41 0 -46 19 -8 16 -10 37 32 19 36 36 42 36 12 0 -11 -12 -27 -26 -36 -19
-13 -24 -23 -19 -41 3 -13 0 -33 -6 -44 -9 -18 -6 -26 19 -53 39 -41 54 -72
47 -96 -6 -18 -16 -20 -110 -20 -94 0 -104 2 -110 20 -7 24 8 55 47 96 26 27
28 35 18 53 -6 12 -8 31 -5 41 5 15 -2 27 -24 46 -18 15 -28 31 -24 39 9 25
23 17 39 -20 8 -19 19 -35 24 -35 18 0 23 30 11 57 -18 39 12 67 48 44z m-880
-193 c10 -41 8 -56 -11 -115 -11 -37 -25 -72 -29 -77 -12 -14 -38 88 -30 120
12 53 45 134 52 126 3 -4 11 -28 18 -54z m1821 -169 c0 -11 -6 -19 -14 -19 -8
0 -21 -3 -29 -6 -13 -5 -13 0 1 29 13 26 20 32 30 25 6 -6 12 -19 12 -29z
m-844 -38 c-3 -4 6 -23 19 -41 14 -19 25 -46 25 -61 0 -16 7 -30 18 -34 15 -6
14 -8 -8 -17 -16 -6 -26 -6 -28 1 -2 5 -16 27 -31 49 -35 48 -91 76 -135 68
-36 -7 -85 -53 -111 -104 -15 -32 -18 -33 -38 -19 -26 18 -25 33 11 110 l27
57 128 0 c71 0 126 -4 123 -9z m943 -37 c40 -12 70 -31 121 -79 38 -35 80 -67
94 -71 32 -8 33 -22 2 -33 -19 -8 -25 -19 -30 -62 -11 -82 -53 -149 -117 -188
-43 -26 -148 -29 -205 -5 -45 19 -116 66 -143 96 l-19 20 -21 -21 c-17 -17
-26 -19 -41 -11 -19 10 -19 11 1 44 21 36 28 37 92 11 13 -6 17 -2 17 16 0 24
26 59 43 59 16 0 47 -32 47 -48 0 -9 -9 -26 -21 -38 -17 -18 -19 -25 -8 -42
19 -30 59 -50 115 -57 69 -10 126 8 163 50 109 124 18 306 -153 307 -65 1
-126 -26 -189 -82 l-48 -43 3 53 c3 51 5 54 42 73 55 29 157 66 182 66 11 1
44 -6 73 -15z m-1901 -75 c30 -10 32 -14 32 -56 0 -45 0 -45 -22 -29 -44 31
-116 65 -164 78 -48 12 -48 12 -19 20 38 9 130 2 173 -13z m890 -8 c16 -16 35
-51 43 -78 12 -45 11 -60 -24 -233 -46 -224 -77 -337 -88 -317 -5 7 -24 99
-43 203 -20 104 -40 204 -46 223 -23 79 47 231 106 231 12 0 36 -13 52 -29z
m-651 -72 c79 -40 170 -113 204 -164 15 -22 34 -67 44 -100 22 -78 72 -168
132 -236 83 -95 83 -96 28 -64 -107 61 -245 160 -348 249 -114 100 -195 222
-212 320 l-6 39 48 -7 c26 -3 76 -20 110 -37z m1323 18 c0 -49 -31 -126 -78
-193 -89 -126 -243 -254 -477 -394 l-40 -25 35 44 c88 108 126 178 159 288 18
60 32 83 77 132 61 67 127 112 212 147 76 31 112 32 112 1z m-1670 -16 c57
-22 142 -80 90 -62 -46 16 -160 33 -258 40 l-97 6 40 23 c33 19 51 22 105 18
36 -2 90 -14 120 -25z m744 -23 c21 -32 49 -143 91 -355 19 -100 38 -190 42
-200 10 -29 -64 45 -112 112 -134 188 -166 384 -73 449 29 21 35 20 52 -6z
m446 -43 c20 -41 25 -64 24 -130 0 -69 -5 -91 -31 -145 -34 -72 -101 -165
-162 -224 l-40 -39 18 49 c11 27 36 133 56 234 48 237 70 312 93 308 9 -2 28
-25 42 -53z m-592 -8 l-12 -38 -33 33 -34 33 43 5 c24 3 44 5 45 5 1 -1 -3
-18 -9 -38z m749 29 c1 -1 -18 -22 -42 -47 l-43 -45 -15 53 -15 54 57 -7 c31
-3 57 -7 58 -8z m143 -345 c-30 -44 -96 -98 -166 -137 -86 -48 -89 -42 -8 15
38 27 96 72 129 100 32 28 61 51 63 51 2 0 -6 -13 -18 -29z m-895 -142 c95
-65 91 -71 -10 -14 -62 35 -175 129 -175 146 0 6 21 -8 48 -30 26 -22 88 -67
137 -102z m425 -159 c0 -6 -32 -10 -75 -10 -43 0 -75 4 -75 10 0 6 32 10 75
10 43 0 75 -4 75 -10z m-17 -90 c15 -74 83 -140 191 -183 32 -13 55 -27 50
-30 -5 -2 -60 -11 -123 -17 -115 -13 -394 -8 -476 8 l-40 8 72 28 c94 36 166
99 190 167 l18 49 56 0 c55 0 57 -1 62 -30z m-347 -275 c129 -19 388 -19 538
0 131 18 159 15 104 -9 -122 -53 -554 -56 -715 -5 -18 6 -33 15 -33 20 0 11
-11 12 106 -6z m-217 -215 c34 -36 42 -39 72 -34 19 4 44 16 57 27 15 14 26
17 32 11 14 -14 -40 -94 -79 -117 -41 -24 -66 -15 -95 36 -24 41 -44 117 -32
117 4 0 24 -18 45 -40z m778 -183 c10 -10 9 -21 -3 -56 -8 -25 -13 -55 -10
-67 7 -27 -17 -39 -34 -18 -18 20 -56 17 -79 -7 -10 -11 -29 -48 -42 -81 -27
-73 -30 -64 92 -317 49 -101 89 -188 89 -193 0 -4 -26 -8 -58 -8 -44 0 -63 5
-74 18 -8 9 -41 79 -74 154 -32 76 -61 138 -64 138 -3 0 -13 -28 -23 -63 -27
-90 -74 -200 -98 -225 -26 -29 -69 -30 -69 -1 0 11 8 33 19 47 31 44 87 162
116 243 l26 76 -79 174 c-44 96 -77 177 -73 180 12 13 110 18 119 6 5 -7 29
-60 52 -119 24 -60 46 -108 50 -108 4 0 13 21 19 48 21 83 63 163 95 184 33
20 80 18 103 -5z m-1935 4 c23 -1 27 -6 33 -43 17 -105 74 -179 125 -163 15 5
19 19 22 96 3 103 14 119 77 119 58 0 62 -7 50 -80 -7 -41 -8 -113 -4 -195 5
-71 8 -150 9 -175 l1 -45 -55 -3 c-75 -4 -80 5 -80 140 0 105 -1 108 -22 108
-13 0 -38 -9 -56 -20 -63 -39 -99 -24 -151 62 -19 32 -71 170 -71 189 0 10 25
14 64 12 17 -1 43 -2 58 -2z m2682 -21 c-1 -14 -5 -60 -9 -102 l-7 -78 91 0
91 0 0 79 c0 44 4 91 10 106 9 24 13 26 67 23 55 -3 58 -4 56 -28 -12 -121
-14 -279 -4 -354 8 -65 8 -93 0 -103 -15 -17 -105 -17 -116 0 -4 6 -10 62 -13
122 l-5 110 -87 3 -88 3 0 -28 c0 -15 5 -66 10 -112 11 -100 6 -111 -54 -111
-72 0 -71 -5 -74 232 -2 134 1 223 7 241 10 27 13 28 68 25 55 -3 58 -4 57
-28z m-1905 -118 c19 -75 49 -182 68 -237 18 -55 33 -103 33 -107 0 -5 -29 -8
-64 -8 l-65 0 -15 53 c-8 28 -18 65 -22 80 -6 28 -8 27 -36 -32 -33 -68 -71
-101 -128 -108 -76 -10 -126 50 -118 143 5 61 40 120 133 223 51 57 57 68 52
98 l-6 33 67 0 67 0 34 -138z m315 36 l-7 -102 39 23 c147 86 142 82 146 131
l3 45 68 3 69 3 -9 -58 c-9 -65 -11 -239 -3 -353 l5 -75 -51 -3 c-76 -4 -78 2
-83 190 -1 87 -5 158 -8 158 -2 0 -42 -23 -89 -52 l-84 -51 1 -61 c0 -34 4
-85 8 -113 5 -33 3 -57 -3 -63 -5 -5 -33 -10 -62 -10 -49 0 -53 2 -59 28 -9
43 -11 414 -1 440 6 19 14 22 67 22 l61 0 -8 -102z m1274 -55 c23 -87 53 -191
67 -232 14 -41 25 -80 25 -88 0 -9 -17 -13 -63 -13 l-63 0 -18 73 c-22 86 -32
100 -41 59 -9 -42 -58 -108 -94 -127 -85 -43 -171 16 -171 118 0 49 41 122
122 216 61 72 71 90 70 118 l-3 33 64 0 64 0 41 -157z m1081 -1 c22 -87 52
-191 66 -232 35 -103 36 -101 -37 -98 l-62 3 -25 80 -24 80 -13 -39 c-42 -120
-152 -173 -222 -108 -34 32 -48 83 -38 137 8 39 64 123 140 210 41 47 50 63
48 91 l-3 34 64 0 64 0 42 -158z"/>
<path d="M2886 1736 c-31 -42 -76 -134 -76 -158 0 -31 23 -68 47 -74 34 -9 82
14 100 49 14 28 14 36 -7 116 -12 47 -26 90 -30 94 -4 4 -19 -8 -34 -27z"/>
<path d="M4451 1705 c-73 -107 -67 -205 11 -205 38 0 88 48 88 86 0 32 -41
184 -49 184 -3 0 -26 -29 -50 -65z"/>
<path d="M5555 1737 c-74 -92 -95 -177 -54 -218 41 -41 129 6 129 70 0 15 -11
62 -23 106 l-24 78 -28 -36z"/>
</g>
</svg>
